<svg width="93" height="93" xmlns="http://www.w3.org/2000/svg" viewBox="0 0 93 93"><defs><clipPath id="a"><path d="M33.866.451H59.04c18.54 0 33.569 15.029 33.569 33.568v25.176c0 18.54-15.03 33.568-33.568 33.568H33.866C15.326 92.763.297 77.734.297 59.195V34.02C.297 15.479 15.327.45 33.866.45z"/></clipPath></defs><path d="M33.866.451H59.04c18.54 0 33.569 15.029 33.569 33.568v25.176c0 18.54-15.03 33.568-33.568 33.568H33.866C15.326 92.763.297 77.734.297 59.195V34.02C.297 15.479 15.327.45 33.866.45z" fill="#3effb0"/><g opacity=".1" clip-path="url(#a)"><path d="M22.333 5.7c37.165 0 67.293 30.355 67.293 67.8 0 37.445-30.128 67.8-67.293 67.8-37.164 0-67.292-30.355-67.292-67.8 0-37.445 30.128-67.8 67.292-67.8z" fill="#3ac28a"/></g><path d="M44.386 62.396h-.455l-.23-.008a3.559 3.559 0 0 1-.64-.075 24.623 24.623 0 0 1-3.73-.54l-.409-.087a6.333 6.333 0 0 1-4.757-3.038 4.694 4.694 0 0 1-.454-2.01 4.598 4.598 0 0 1 .46-2.019 6.929 6.929 0 0 1 5.116-3.115 26.739 26.739 0 0 1 3.74-.529 39.864 39.864 0 0 1 6.939 0l.737.063c1.006.1 2.005.256 2.994.466 2.762.568 4.396 1.566 5.14 3.138a4.656 4.656 0 0 1 0 3.997c-.741 1.563-2.417 2.584-5.116 3.116l-.748.16c-.993.19-1.997.321-3.006.392a40.787 40.787 0 0 1-5.582.09zm-1.174-9.114a24.85 24.85 0 0 0-3.447.488 5.132 5.132 0 0 0-3.526 1.868 2.26 2.26 0 0 0-.224.997c-.001.347.074.69.223 1.003.407.842 1.638 1.487 3.562 1.862l.564.12c.99.194 1.99.327 2.997.399.151.03.304.047.458.052l.629.01a38.973 38.973 0 0 0 5.351-.083 22.942 22.942 0 0 0 3.457-.504l.36-.077c1.696-.383 2.787-.997 3.154-1.771a2.339 2.339 0 0 0 0-2.013c-.391-.825-1.611-1.471-3.531-1.866-1.135-.24-2.285-.4-3.441-.48h-.021a37.619 37.619 0 0 0-3.259-.142c-1.082 0-2.21.035-3.304.137zm-5.197-14.276a8.495 8.495 0 1 1 8.487 8.53 8.522 8.522 0 0 1-8.487-8.53zm2.306 0a6.19 6.19 0 1 0 6.181-6.215 6.208 6.208 0 0 0-6.18 6.215z" fill="#0d2951"/></svg>